<svg xmlns="http://www.w3.org/2000/svg" xmlns:xlink="http://www.w3.org/1999/xlink" width="206" height="40" viewBox="0 0 206 40">
  <defs>
    <polygon id="diario-logo-a" points=".007 .204 6.943 .204 6.943 7.777 .007 7.777"/>
  </defs>
  <g fill="none" fill-rule="evenodd">
    <path fill="#FFF" d="M140.898343 39.3094675L140.898343 29.4846154 138.807219 29.4846154 138.807219 32.7821302 138.770059 32.7821302C138.361775 32.2810651 137.748994 31.8789349 136.678935 31.8789349 134.841302 31.8789349 133.727929 33.4133728 133.727929 35.6652071 133.727929 37.9298225 134.859763 39.4640237 136.715858 39.4640237 137.848402 39.4640237 138.466864 39.0001183 138.813136 38.5485207L138.856686 38.5485207 138.856686 39.3094675 140.898343 39.3094675zM138.93716 35.6467456C138.93716 37.007929 138.324379 37.7814201 137.415266 37.7814201 136.412663 37.7814201 135.837278 37.1007101 135.837278 35.6467456 135.837278 34.2673373 136.412663 33.5740828 137.415266 33.5740828 138.324379 33.5740828 138.93716 34.3660355 138.93716 35.6467456L138.93716 35.6467456zM148.550556 35.6900828C148.550556 33.1906746 147.009964 31.8789586 144.949846 31.8789586 142.889491 31.8789586 141.336592 33.1906746 141.336592 35.6900828 141.336592 38.1587219 142.889491 39.464284 144.949846 39.464284 147.009964 39.464284 148.550556 38.1587219 148.550556 35.6900828M146.521207 35.6900828C146.521207 37.1873609 145.859432 37.7752899 144.961917 37.7752899 144.064876 37.7752899 143.396947 37.1935148 143.396947 35.6900828 143.396947 34.155645 144.064876 33.5617988 144.961917 33.5617988 145.859432 33.5617988 146.521207 34.1620355 146.521207 35.6900828"/>
    <polygon fill="#FFF" points="150.778 39.309 152.931 39.309 152.931 32.664 153.006 32.664 157.169 39.309 159.471 39.309 159.471 29.485 157.318 29.485 157.318 36.16 157.256 36.16 153.049 29.485 150.778 29.485"/>
    <path fill="#FFF" d="M167.177515 35.6900828C167.177515 33.1906746 165.636923 31.8789586 163.576805 31.8789586 161.51645 31.8789586 159.96355 33.1906746 159.96355 35.6900828 159.96355 38.1587219 161.51645 39.464284 163.576805 39.464284 165.636923 39.464284 167.177515 38.1587219 167.177515 35.6900828M165.148166 35.6900828C165.148166 37.1873609 164.486391 37.7752899 163.588876 37.7752899 162.691834 37.7752899 162.023905 37.1935148 162.023905 35.6900828 162.023905 34.155645 162.691834 33.5617988 163.588876 33.5617988 164.486391 33.5617988 165.148166 34.1620355 165.148166 35.6900828M167.648166 39.3094675L169.733373 39.3094675 169.733373 36.5873373C169.733373 34.6756213 170.283669 33.8401183 172.121302 33.6855621L172.121302 31.8789349C170.908757 31.8789349 170.098107 32.2872189 169.702367 33.3328994L169.66497 33.3328994 169.66497 32.0211834 167.648166 32.0211834 167.648166 39.3094675zM179.292426 39.3094675L179.292426 29.4846154 177.201302 29.4846154 177.201302 32.7821302 177.164142 32.7821302C176.755858 32.2810651 176.143077 31.8789349 175.073018 31.8789349 173.235385 31.8789349 172.121775 33.4133728 172.121775 35.6652071 172.121775 37.9298225 173.253846 39.4640237 175.109941 39.4640237 176.242249 39.4640237 176.860947 39.0001183 177.207219 38.5485207L177.250769 38.5485207 177.250769 39.3094675 179.292426 39.3094675zM177.331243 35.6467456C177.331243 37.007929 176.718462 37.7814201 175.809349 37.7814201 174.806746 37.7814201 174.231361 37.1007101 174.231361 35.6467456 174.231361 34.2673373 174.806746 33.5740828 175.809349 33.5740828 176.718462 33.5740828 177.331243 34.3660355 177.331243 35.6467456L177.331243 35.6467456zM186.777988 35.411716C186.777988 33.2029586 185.373491 31.8789349 183.393846 31.8789349 181.271716 31.8789349 179.842367 33.3513609 179.842367 35.7149112 179.842367 38.2330178 181.469349 39.451716 183.666036 39.451716 184.748639 39.451716 185.837396 39.1669822 186.746982 37.9608284L185.367574 36.9151479C185.014911 37.5089941 184.340355 37.8306509 183.697041 37.8306509 182.700592 37.8306509 181.970651 37.1627219 181.946036 36.160355L186.710059 36.160355C186.771834 35.7643787 186.777988 35.6344379 186.777988 35.411716M184.730178 34.6323077L181.983195 34.6323077C182.08213 33.9823669 182.459408 33.4256805 183.36284 33.4256805 184.191953 33.4256805 184.63716 33.8959763 184.730178 34.6323077M190.227811 39.4579645C192.282012 39.4579645 193.358225 38.5980828 193.358225 37.100568 193.358225 35.5540592 192.244615 35.0837633 191.260947 34.811574L190.054556 34.4835266C189.615266 34.3658935 189.373846 34.2177278 189.373846 33.9019882 189.373846 33.5062485 189.732899 33.2771361 190.270888 33.2771361 190.920828 33.2771361 191.669231 33.5928757 192.313018 34.2361893L193.240828 32.9616331C192.517041 32.367787 191.607219 31.8790296 190.283432 31.8790296 188.569822 31.8790296 187.388047 32.6153609 187.388047 34.1434083 187.388047 35.3497988 188.136686 35.9313373 189.417396 36.2716923L190.314438 36.5067219C190.94568 36.6738225 191.267337 36.8163077 191.267337 37.2245917 191.267337 37.7318107 190.803195 37.9606864 190.233964 37.9606864 189.392781 37.9606864 188.538817 37.4903905 187.981893 36.8903905L186.985917 38.3197396C187.90142 39.0558343 189.120592 39.4579645 190.227811 39.4579645M196.503195 39.3094675L198.136568 39.3094675 198.136568 37.6884024 197.412781 37.6884024C196.787929 37.6884024 196.614675 37.4905325 196.614675 36.7544379L196.614675 33.2647337 198.136568 33.2647337 198.136568 32.0211834 196.614675 32.0211834 196.614675 29.4846154 194.535621 29.4846154 194.535621 32.0211834 193.551953 32.0211834 193.551953 33.2647337 194.535621 33.2647337 194.535621 37.1750296C194.535621 38.6226036 195.148402 39.3094675 196.503195 39.3094675"/>
    <g transform="translate(198.343 31.675)">
      <mask id="diario-logo-b" fill="#fff">
        <use xlink:href="#diario-logo-a"/>
      </mask>
      <path fill="#FFF" d="M6.94274556,3.73668639 C6.94274556,1.52792899 5.53824852,0.203905325 3.55860355,0.203905325 C1.43647337,0.203905325 0.00712426036,1.67633136 0.00712426036,4.03988166 C0.00712426036,6.55798817 1.63410651,7.77668639 3.8307929,7.77668639 C4.91339645,7.77668639 6.00215385,7.49195266 6.91173964,6.28579882 L5.53233136,5.24011834 C5.17966864,5.8339645 4.50511243,6.1556213 3.86179882,6.1556213 C2.86534911,6.1556213 2.13540828,5.48769231 2.1107929,4.48532544 L6.87457988,4.48532544 C6.93659172,4.08934911 6.94274556,3.95940828 6.94274556,3.73668639 M4.89493491,2.95727811 L2.14795266,2.95727811 C2.24688757,2.30733728 2.62416568,1.75065089 3.52759763,1.75065089 C4.35671006,1.75065089 4.80191716,2.22094675 4.89493491,2.95727811" mask="url(#diario-logo-b)"/>
    </g>
    <path fill="#FFF" d="M34.8553846 19.8186036C34.8553846 7.40747929 28.9595266.000378698225 15.1112426.000378698225L0 .000378698225 0 39.3395503 15.0617751 39.3395503C28.6620118 39.3395503 34.8553846 32.2545799 34.8553846 19.8186036M26.3086391 19.5707929C26.3086391 27.5724497 23.1375148 31.9573018 14.3928994 31.9573018L8.6208284 31.9573018 8.6208284 7.35777515 15.0123077 7.35777515C23.3855621 7.35777515 26.3086391 11.8415621 26.3086391 19.5707929M72.3952189 39.3396923L72.3952189 19.6452544C72.3952189 12.956497 67.7874083 9.58750296 60.6032663 9.58750296 56.020071 9.58750296 51.3381775 10.9993373 47.3003077 14.2696331L50.8674083 19.7938935C53.2953373 17.5146036 57.035929 15.8301065 60.3554556 15.8301065 63.1798343 15.8301065 64.9140355 17.0935385 65.0375858 19.4469112L57.035929 21.7262012C51.140071 23.3858462 46.7552189 26.1356686 46.7552189 31.7839527 46.7552189 36.9368521 50.2977041 39.9588639 55.7973491 39.9588639 58.5225562 39.9588639 61.544568 39.1415858 65.0375858 36.3172071L65.0375858 39.3396923 72.3952189 39.3396923zM65.0375858 30.867503C62.808 32.7749586 60.5287101 34.0632426 58.2252781 34.0632426 56.1937988 34.0632426 55.0044497 32.948213 55.0044497 31.139929 55.0044497 29.1827692 56.3178225 28.2168521 59.0177041 27.3496331L65.0375858 25.4170888 65.0375858 30.867503zM132.627503 24.847503C132.627503 14.8392189 126.459219 9.58738462 118.209751 9.58738462 109.960284 9.58738462 103.742296 14.8392189 103.742296 24.847503 103.742296 34.732 109.960284 39.9589822 118.209751 39.9589822 126.459219 39.9589822 132.627503 34.732 132.627503 24.847503M124.501822 24.847503C124.501822 30.8425325 121.851172 33.1959053 118.259219 33.1959053 114.667266 33.1959053 111.991527 30.8671479 111.991527 24.847503 111.991527 18.7038343 114.667266 16.3253728 118.259219 16.3253728 121.851172 16.3253728 124.501822 18.7286864 124.501822 24.847503"/>
    <polygon fill="#FFF" points="36.868 6.094 45.216 6.094 45.216 0 36.868 0"/>
    <polygon fill="#FFF" points="36.868 39.34 45.216 39.34 45.216 10.157 36.868 10.157"/>
    <path fill="#FFF" d="M74.26,39.339716 L82.6084024,39.339716 L82.6084024,28.9790059 C82.6084024,21.3240947 84.8133728,17.979716 92.1707692,17.3605444 L92.1707692,10.1266982 C87.3153846,10.1266982 84.0699408,11.7617278 82.4848521,15.9482367 L82.3357396,15.9482367 L82.3357396,10.1569941 L74.26,10.1569941 L74.26,39.339716 Z"/>
    <polygon fill="#FFF" points="93.776 6.094 102.124 6.094 102.124 0 93.776 0"/>
    <polygon fill="#FFF" points="93.776 39.34 102.124 39.34 102.124 10.157 93.776 10.157"/>
    <polygon fill="#FFF" points="56.658 6.094 65.007 6.094 65.007 0 56.658 0"/>
  </g>
</svg>
