<svg width="420" height="82" viewBox="0 0 420 82" fill="none" xmlns="http://www.w3.org/2000/svg">
<g clip-path="url(#clip0)">
<path d="M284.256 73.054C284.256 75.838 283.002 77.422 281.142 77.422C279.09 77.422 277.914 76.028 277.914 73.054C277.914 70.233 279.09 68.813 281.142 68.813C283.002 68.812 284.256 70.434 284.256 73.054ZM288.269 80.547V60.446H283.991V67.193H283.915C283.08 66.169 281.827 65.345 279.637 65.345C275.878 65.345 273.599 68.484 273.599 73.09C273.599 77.724 275.915 80.862 279.712 80.862C282.029 80.862 283.294 79.913 284.003 78.989H284.092V80.546H288.269V80.547Z" fill="white"/>
<path d="M299.771 73.142C299.771 76.206 298.417 77.41 296.582 77.41C294.747 77.41 293.382 76.219 293.382 73.142C293.382 70.004 294.747 68.788 296.582 68.788C298.418 68.787 299.771 70.016 299.771 73.142ZM303.925 73.142C303.925 68.03 300.772 65.346 296.557 65.346C292.343 65.346 289.165 68.03 289.165 73.142C289.165 78.195 292.343 80.864 296.557 80.864C300.771 80.863 303.925 78.194 303.925 73.142Z" fill="white"/>
<path d="M308.481 80.547H312.888V66.953H313.04L321.559 80.547H326.267V60.446H321.861V74.104H321.735L313.128 60.446H308.481V80.547Z" fill="white"/>
<path d="M337.882 73.142C337.882 76.206 336.528 77.41 334.692 77.41C332.857 77.41 331.49 76.219 331.49 73.142C331.49 70.004 332.857 68.788 334.692 68.788C336.528 68.787 337.882 70.016 337.882 73.142ZM342.033 73.142C342.033 68.03 338.882 65.346 334.667 65.346C330.451 65.346 327.273 68.03 327.273 73.142C327.273 78.195 330.451 80.864 334.667 80.864C338.882 80.863 342.033 78.194 342.033 73.142Z" fill="white"/>
<path d="M342.996 80.547H347.262V74.98C347.262 71.067 348.389 69.358 352.149 69.042V65.347C349.668 65.347 348.009 66.181 347.199 68.32H347.124V65.638H342.997V80.547H342.996Z" fill="white"/>
<path d="M362.808 73.054C362.808 75.838 361.554 77.422 359.694 77.422C357.642 77.422 356.466 76.028 356.466 73.054C356.466 70.233 357.642 68.813 359.694 68.813C361.554 68.812 362.808 70.434 362.808 73.054ZM366.82 80.547V60.446H362.542V67.193H362.465C361.63 66.169 360.377 65.345 358.187 65.345C354.428 65.345 352.15 68.484 352.15 73.09C352.15 77.724 354.466 80.862 358.263 80.862C360.579 80.862 361.845 79.913 362.555 78.989H362.643V80.546H366.82V80.547Z" fill="white"/>
<path d="M377.945 70.978H372.325C372.527 69.649 373.3 68.51 375.146 68.51C376.844 68.51 377.755 69.473 377.945 70.978ZM382.135 72.573C382.135 68.052 379.262 65.345 375.211 65.345C370.869 65.345 367.944 68.357 367.944 73.194C367.944 78.345 371.274 80.838 375.767 80.838C377.982 80.838 380.209 80.256 382.07 77.789L379.249 75.649C378.527 76.863 377.147 77.523 375.83 77.523C373.792 77.523 372.3 76.155 372.248 74.104H381.995C382.122 73.294 382.135 73.028 382.135 72.573Z" fill="white"/>
<path d="M389.193 80.852C393.395 80.852 395.597 79.092 395.597 76.029C395.597 72.865 393.319 71.904 391.306 71.346L388.837 70.674C387.939 70.434 387.444 70.129 387.444 69.485C387.444 68.674 388.177 68.208 389.28 68.208C390.61 68.208 392.14 68.854 393.457 70.169L395.356 67.562C393.875 66.347 392.014 65.347 389.305 65.347C385.799 65.347 383.381 66.853 383.381 69.98C383.381 72.448 384.912 73.637 387.532 74.334L389.368 74.814C390.66 75.156 391.318 75.447 391.318 76.283C391.318 77.321 390.368 77.79 389.204 77.79C387.482 77.79 385.734 76.827 384.596 75.6L382.559 78.525C384.433 80.027 386.927 80.852 389.193 80.852Z" fill="white"/>
<path d="M402.032 80.547H405.374V77.232H403.893C402.615 77.232 402.259 76.827 402.259 75.322V68.182H405.374V65.637H402.259V60.447H398.006V65.637H395.993V68.182H398.006V76.181C398.006 79.143 399.26 80.547 402.032 80.547Z" fill="white"/>
<path d="M415.81 70.978H410.192C410.393 69.649 411.166 68.51 413.014 68.51C414.709 68.51 415.621 69.473 415.81 70.978ZM420 72.573C420 68.052 417.127 65.345 413.077 65.345C408.735 65.345 405.81 68.357 405.81 73.194C405.81 78.345 409.138 80.838 413.634 80.838C415.848 80.838 418.076 80.256 419.937 77.789L417.115 75.649C416.393 76.863 415.013 77.523 413.697 77.523C411.659 77.523 410.164 76.155 410.114 74.104H419.86C419.987 73.294 420 73.028 420 72.573Z" fill="white"/>
<path d="M53.826 40.164C53.826 56.533 47.338 65.506 29.447 65.506H17.638V15.177H30.715C47.845 15.177 53.826 24.35 53.826 40.164ZM71.312 40.672C71.312 15.278 59.25 0.123962 30.917 0.123962H0V80.609H30.815C58.64 80.609 71.312 66.113 71.312 40.672Z" fill="white"/>
<path d="M133.063 63.275C128.501 67.177 123.838 69.814 119.125 69.814C114.969 69.814 112.535 67.533 112.535 63.834C112.535 59.828 115.222 57.854 120.746 56.078L133.063 52.125V63.275ZM148.117 80.609V40.316C148.117 26.631 138.688 19.738 123.991 19.738C114.614 19.738 105.035 22.626 96.7739 29.317L104.072 40.619C109.04 35.956 116.692 32.509 123.484 32.509C129.262 32.509 132.81 35.094 133.064 39.909L116.692 44.573C104.63 47.968 95.6589 53.593 95.6589 65.149C95.6589 75.692 102.907 81.875 114.158 81.875C119.734 81.875 125.917 80.202 133.064 74.425V80.609H148.117Z" fill="white"/>
<path d="M254.722 50.961C254.722 63.225 249.299 68.039 241.951 68.039C234.601 68.039 229.128 63.273 229.128 50.961C229.128 38.391 234.602 33.524 241.951 33.524C249.299 33.524 254.722 38.44 254.722 50.961ZM271.347 50.961C271.347 30.483 258.726 19.738 241.848 19.738C224.971 19.738 212.25 30.483 212.25 50.961C212.25 71.184 224.971 81.877 241.848 81.877C258.726 81.877 271.347 71.184 271.347 50.961Z" fill="white"/>
<path d="M92.51 0.122986H75.429V12.592H92.51V0.122986Z" fill="white"/>
<path d="M92.51 20.904H75.429V80.61H92.51V20.904Z" fill="white"/>
<path d="M151.931 80.609H169.012V59.412C169.012 43.752 173.524 36.908 188.575 35.641V20.841C178.641 20.841 172.002 24.186 168.759 32.751H168.454V20.904H151.931V80.609Z" fill="white"/>
<path d="M208.938 0.122986H191.859V12.592H208.938V0.122986Z" fill="white"/>
<path d="M208.938 20.904H191.859V80.61H208.938V20.904Z" fill="white"/>
<path d="M132.999 0.122986H115.918V12.592H132.999V0.122986Z" fill="white"/>
</g>
<defs>
<clipPath id="clip0">
<rect width="420" height="82" fill="white"/>
</clipPath>
</defs>
</svg>
